<?xml version="1.0" encoding="UTF-8"?>
<svg xmlns="http://www.w3.org/2000/svg" viewBox="0 0 880.04 1247.32">
  <defs>
    <style>
      .cls-1 {
        fill: #606060;
      }

      .cls-1, .cls-2, .cls-3, .cls-4, .cls-5, .cls-6, .cls-7, .cls-8 {
        stroke: #000;
        stroke-miterlimit: 10;
      }

      .cls-1, .cls-3, .cls-4, .cls-5, .cls-8 {
        stroke-width: 7px;
      }

      .cls-2 {
        stroke-width: .5px;
      }

      .cls-3 {
        fill: #3758dd;
      }

      .cls-4 {
        fill: #491111;
      }

      .cls-5 {
        fill: none;
      }

      .cls-6 {
        fill: #fff;
      }

      .cls-7 {
        fill: #1b6d1d;
      }

      .cls-8 {
        fill: #351616;
      }
    </style>
  </defs>
  <g id="Capa_10" data-name="Capa 10">
    <path class="cls-4" d="m340.58,401.32h140s2.5-62.5-28.27-65h-85.23s-30,6.5-26.5,65Z"/>
    <polygon class="cls-3" points="364.58 336.32 364.58 241.43 410.58 195.32 455.58 241.43 455.58 336.32 364.58 336.32"/>
  </g>
  <g id="aspas">
    <circle class="cls-8" cx="410.58" cy="240.32" r="14.5"/>
    <path class="cls-1" d="m394.84,241.94l-98.98,45.48,22.28,35.84,81.57-68.09s-6.17-7.29-4.87-13.23Z"/>
    <path class="cls-1" d="m417.99,224.74l10.71-108.4-42.19,1.14,17.6,104.79s9.41-1.64,13.88,2.48Z"/>
    <path class="cls-1" d="m416.39,255.36l81.97,71.74,23.6-34.98-95.49-46.61s-4.13,8.61-10.09,9.85Z"/>
  </g>
  <g id="Capa_20" data-name="Capa 20">
    <path class="cls-2" d="m176.58,397.32h-5l1-23-3,1s-1,0,0-1l3-1v-10s-3,0-1,2l-2.5.5s-1,6-2,1c0,0-5,4-3,1,0,0-4,1-4-1l12-4v-7s-3,2-3,2c0,0-1,3-3,3v-2l-1,1s-5,1-1-2l8-4v-4l-4,1,4-2v-5s-2,1-2,0c0,0-5,2-3,0,0,0,5-2,5-3v-10s1-2,1,4c0,0,1,3,5,3,0,0,0,3-4,0v6l9,3s0,5-4,1c0,0-4,0-3-2l-2-1v5s7,4,9,4c0,0,5,1,1,2l-3-1s-1,4-2,1v-1s-5-1-2-2l-3-1,1,8,10,2s-2,2-5,0c0,0-4,2-4-1h-2v4s3,0,5,2c0,0,9,3,10,5,0,0-1,1-4,0,0,0-1,2-3-1,0,0-2,4-3,0,0,0-2,0-1-1,0,0-3-2-1-3,0,0-2-1-3-1l1,15s1,5,0,7l1.5,9.5Z"/>
    <path class="cls-2" d="m229.96,397.98h-10.75l2.15-49.45-6.45,2.15s-2.15,0,0-2.15l6.45-2.15v-21.5s-6.45,0-2.15,4.3l-5.37,1.07s-2.15,12.9-4.3,2.15c0,0-10.75,8.6-6.45,2.15,0,0-8.6,2.15-8.6-2.15l25.8-8.6v-15.05s-6.45,4.3-6.45,4.3c0,0-2.15,6.45-6.45,6.45v-4.3l-2.15,2.15s-10.75,2.15-2.15-4.3l17.2-8.6v-8.6l-8.6,2.15,8.6-4.3v-10.75s-4.3,2.15-4.3,0c0,0-10.75,4.3-6.45,0,0,0,10.75-4.3,10.75-6.45v-21.5s2.15-4.3,2.15,8.6c0,0,2.15,6.45,10.75,6.45,0,0,0,6.45-8.6,0v12.9l19.35,6.45s0,10.75-8.6,2.15c0,0-8.6,0-6.45-4.3l-4.3-2.15v10.75s15.05,8.6,19.35,8.6c0,0,10.75,2.15,2.15,4.3l-6.45-2.15s-2.15,8.6-4.3,2.15v-2.15s-10.75-2.15-4.3-4.3l-6.45-2.15,2.15,17.2,21.5,4.3s-4.3,4.3-10.75,0c0,0-8.6,4.3-8.6-2.15h-4.3v8.6s6.45,0,10.75,4.3c0,0,19.35,6.45,21.5,10.75,0,0-2.15,2.15-8.6,0,0,0-2.15,4.3-6.45-2.15,0,0-4.3,8.6-6.45,0,0,0-4.3,0-2.15-2.15,0,0-6.45-4.3-2.15-6.45,0,0-4.3-2.15-6.45-2.15l2.15,32.25s2.15,10.75,0,15.05l3.22,20.42Z"/>
    <path class="cls-2" d="m597.28,399.36h-10.75l2.15-49.45-6.45,2.15s-2.15,0,0-2.15l6.45-2.15v-21.5s-6.45,0-2.15,4.3l-5.37,1.07s-2.15,12.9-4.3,2.15c0,0-10.75,8.6-6.45,2.15,0,0-8.6,2.15-8.6-2.15l25.8-8.6v-15.05l-6.45,4.3s-2.15,6.45-6.45,6.45v-4.3l-2.15,2.15s-10.75,2.15-2.15-4.3l17.2-8.6v-8.6l-8.6,2.15,8.6-4.3v-10.75s-4.3,2.15-4.3,0c0,0-10.75,4.3-6.45,0,0,0,10.75-4.3,10.75-6.45v-21.5s2.15-4.3,2.15,8.6c0,0,2.15,6.45,10.75,6.45,0,0,0,6.45-8.6,0v12.9l19.35,6.45s0,10.75-8.6,2.15c0,0-8.6,0-6.45-4.3l-4.3-2.15v10.75s15.05,8.6,19.35,8.6c0,0,10.75,2.15,2.15,4.3l-6.45-2.15s-2.15,8.6-4.3,2.15v-2.15s-10.75-2.15-4.3-4.3l-6.45-2.15,2.15,17.2,21.5,4.3s-4.3,4.3-10.75,0c0,0-8.6,4.3-8.6-2.15h-4.3v8.6s6.45,0,10.75,4.3c0,0,19.35,6.45,21.5,10.75,0,0-2.15,2.15-8.6,0,0,0-2.15,4.3-6.45-2.15,0,0-4.3,8.6-6.45,0,0,0-4.3,0-2.15-2.15,0,0-6.45-4.3-2.15-6.45,0,0-4.3-2.15-6.45-2.15l2.15,32.25s2.15,10.75,0,15.05l3.22,20.42Z"/>
    <path class="cls-2" d="m665.68,397.36h-5.79l1.16-26.63-3.47,1.16s-1.16,0,0-1.16l3.47-1.16v-11.58s-3.47,0-1.16,2.32l-2.89.58s-1.16,6.95-2.32,1.16c0,0-5.79,4.63-3.47,1.16,0,0-4.63,1.16-4.63-1.16l13.89-4.63v-8.1l-3.47,2.32s-1.16,3.47-3.47,3.47v-2.32l-1.16,1.16s-5.79,1.16-1.16-2.32l9.26-4.63v-4.63l-4.63,1.16,4.63-2.32v-5.79s-2.32,1.16-2.32,0c0,0-5.79,2.32-3.47,0,0,0,5.79-2.32,5.79-3.47v-11.58s1.16-2.32,1.16,4.63c0,0,1.16,3.47,5.79,3.47,0,0,0,3.47-4.63,0v6.95l10.42,3.47s0,5.79-4.63,1.16c0,0-4.63,0-3.47-2.32l-2.32-1.16v5.79s8.1,4.63,10.42,4.63c0,0,5.79,1.16,1.16,2.32l-3.47-1.16s-1.16,4.63-2.32,1.16v-1.16s-5.79-1.16-2.32-2.32l-3.47-1.16,1.16,9.26,11.58,2.32s-2.32,2.32-5.79,0c0,0-4.63,2.32-4.63-1.16h-2.32v4.63s3.47,0,5.79,2.32c0,0,10.42,3.47,11.58,5.79,0,0-1.16,1.16-4.63,0,0,0-1.16,2.32-3.47-1.16,0,0-2.32,4.63-3.47,0,0,0-2.32,0-1.16-1.16,0,0-3.47-2.32-1.16-3.47,0,0-2.32-1.16-3.47-1.16l1.16,17.36s1.16,5.79,0,8.1l1.74,11Z"/>
  </g>
  <g id="lineas_bajas" data-name="lineas bajas">
    <line class="cls-5" x1="311.21" y1="399.27" x2="98.21" y2="401.27"/>
    <line class="cls-5" x1="547.29" y1="400.32" x2="706.27" y2="400.32"/>
  </g>
  <g id="Capa_18" data-name="Capa 18">
    <path class="cls-7" d="m379.58,430.32s15-15,33-1l19,65,18-67s23-14,32,6l-10,41s-6-10-5-19c0,0-6,18,1,29l-15,36s-19,18-40,2l-22-54s-7,4-9,11c0,0-4-13,6-24l-8-25Z"/>
    <path class="cls-7" d="m510.58,423.32s28-7,32,9c0,0,6,10,0,24v24s11-4,14,1c0,0-12,7-13,12l-1,31s-10,7-29,0c0,0-4-5-4-10v-61l1-30Z"/>
    <g id="Capa_17" data-name="Capa 17">
      <path class="cls-7" d="m263.58,430.56l-1,85.02s5,11.73,14,10.75c0,0,18-.98,19-1.95v-30.29h6s20,35.18,28,32.25c8-2.93,1,0,1,0,0,0,18,1.95,19-5.86,0,0,5-3.91-1-14.66l-17-19.54s15-8.79,17-22.48c0,0,8-13.68,19-8.79,0,0-8-12.7-21-12.7,0,0-10.5-21.01-47.5-22.96,0,0-35,3.91-35.5,11.24Z"/>
      <path class="cls-6" d="m296.08,448.64v21.5s17,0,19-3.91c0,0,5-4.89,11-.98,0,0-2-3.91-8-5.86,0,0-3-10.75-10-10.75h-12Z"/>
    </g>
    <g id="Capa_16" data-name="Capa 16">
      <path class="cls-7" d="m167.08,424.82s28-11,44,1l7,17s10-2,15-8c0,0-3,15-12,19l19,66s-7,12-28,5c0,0-4,0-9-21h-28s-1,23-12,22c0,0-18,2-21-5,0,0-5-1,1-22l12-37s-12-2-18,5c0,0,3-16,17-19,0,0-9-3,9-11l4-12Z"/>
      <path class="cls-6" d="m189.08,449.82l-9,27h9s3,8,7,5l3-5-10-27Z"/>
      <path class="cls-7" d="m602.04,425.82s28-11,44,1l7,17s10-2,15-8c0,0-3,15-12,19l19,66s-7,12-28,5c0,0-4,0-9-21h-28s-1,23-12,22c0,0-18,2-21-5,0,0-5-1,1-22l12-37s-12-2-18,5c0,0,3-16,17-19,0,0-9-3,9-11l4-12Z"/>
      <path class="cls-6" d="m625.04,451.82l-9,27h9s3,8,7,5l3-5-10-27Z"/>
    </g>
  </g>
</svg>