<?xml version="1.0" encoding="UTF-8"?>
<svg id="Layer_1" data-name="Layer 1" xmlns="http://www.w3.org/2000/svg" viewBox="0 0 492 492">
  <path d="M264.79,340.55c3.02-.98,4.67-4.23,3.69-7.25-.98-3.02-4.23-4.67-7.25-3.69-6.7,2.2-13.98,4.35-20.54,5.13-5.7.68-10.74.34-13.93-2-11.06-8.11-76.66-63.15-91.04-75.22l23.46-90.03,7.07-2.72c32.37,1.15,49.01-.53,61.46-1.78,21.61-2.17,29.93-3,93.22,16.68l37.95,89.26c-1.23.82-2.47,1.66-3.71,2.5-2.35,1.61-4.96,3.45-7.74,5.45-2.57,1.85-3.16,5.44-1.31,8.01,1.85,2.57,5.44,3.16,8.01,1.31,2.3-1.65,4.78-3.4,7.52-5.27,2.39-1.63,4.78-3.23,7.19-4.78,2.55-1.41,3.68-4.55,2.51-7.29l-5.3,2.25,5.29-2.25-40.73-95.78c-.58-1.67-1.91-3.05-3.72-3.61l-1.72,5.5,1.71-5.49c-67.8-21.19-76.69-20.3-100.3-17.92-12.22,1.23-28.58,2.87-60.6,1.71-.9-.11-1.84,0-2.75.34v.02s-10.4,4.01-10.4,4.01c-1.92.53-3.5,2.04-4.04,4.1l5.57,1.45-5.56-1.44-24.99,95.92c-.77,2.2-.16,4.74,1.73,6.32l3.71-4.41-3.69,4.41c.23.2,81.58,68.6,94.4,78,5.93,4.35,13.73,5.16,22.08,4.16,7.49-.89,15.47-3.24,22.74-5.62Z" fill="#000" stroke-width="0"/>
  <path d="M211.7,163.74c1.76-2.63,1.06-6.2-1.58-7.97-2.63-1.76-6.2-1.06-7.96,1.58-.11.16-38.67,56.98-5.63,72.48v.02c.19.09.39.18.6.24,13.05,5.44,23.08-1.94,34.01-9.99,15.5-11.41,33.36-24.55,65.98,16.52h0c.22.28.46.53.71.76,3.91,4,42.93,44.06,47.31,54.29.8,1.86,1,3.98.59,6-.36,1.83-1.23,3.54-2.6,4.84-1.41,1.34-3.41,2.31-6.02,2.61-3.53.41-8.04-.34-13.6-2.8l-44.74-44.74c-2.25-2.25-5.9-2.25-8.14,0s-2.25,5.9,0,8.15l45.33,45.33c.48.51,1.07.94,1.75,1.25v-.02c8.14,3.79,15.07,4.91,20.72,4.26,5.29-.61,9.51-2.73,12.64-5.71,3.17-3.03,5.16-6.89,5.97-10.96.84-4.22.4-8.7-1.31-12.7-5.27-12.3-46.47-54.55-49.76-57.91-39.4-49.49-62-32.86-81.61-18.43-8.16,6.01-15.65,11.52-22.76,8.67-.06-.03-.12-.06-.18-.09h0s-.12-.04-.12-.04c-20.56-9.87,10.33-55.51,10.42-55.64Z" fill="#000" stroke-width="0"/>
  <path d="M256.7,282.67c-2.34-2.15-5.97-2-8.12.34-2.15,2.34-2,5.97.34,8.12l42.28,39.03c3.9,3.6,10.48,5.95,16.79,5.94,3.66,0,7.32-.77,10.48-2.47,3.44-1.86,6.26-4.76,7.87-8.91,1.86-4.79,1.97-11.18-.78-19.42-.99-3.01-4.24-4.64-7.25-3.65-3.01.99-4.64,4.24-3.65,7.25,1.81,5.44,1.91,9.21.96,11.68-.53,1.36-1.46,2.31-2.6,2.93-1.43.77-3.2,1.12-5.04,1.12-3.56,0-7.09-1.15-9.01-2.92l-42.28-39.03Z" fill="#000" stroke-width="0"/>
  <path d="M244.12,308.79c-2.26-2.22-5.9-2.19-8.12.07-2.22,2.26-2.19,5.9.07,8.12l29.55,28.7,4.03-4.09-4.03,4.11c.52.51,1.11.9,1.74,1.17,4.31,2.31,31.89,15.66,34.95-19.09.27-3.17-2.07-5.96-5.24-6.23-3.17-.27-5.96,2.07-6.23,5.24-1.53,17.35-14.72,11.68-17.72,10.15l-28.98-28.15Z" fill="#000" stroke-width="0"/>
  <g>
    <path d="M100.03,120.77l50.19,13.45c4.59,1.23,8.26,4.22,10.47,8.05v.02c2.21,3.83,2.97,8.5,1.75,13.08l-30.02,112.03c-1.23,4.59-4.22,8.26-8.05,10.47h-.02c-3.83,2.21-8.5,2.97-13.08,1.75l-50.19-13.45c-4.59-1.23-8.26-4.22-10.47-8.05v-.02c-2.21-3.83-2.97-8.5-1.75-13.08l30.02-112.03c1.23-4.59,4.22-8.26,8.05-10.47h.02c3.83-2.21,8.5-2.97,13.08-1.75h0ZM147.25,145.33l-50.19-13.45c-1.54-.41-3.1-.16-4.38.57h0c-1.28.75-2.29,1.98-2.7,3.5l-30.02,112.03c-.41,1.54-.16,3.1.57,4.37h0c.74,1.28,1.97,2.28,3.5,2.69l50.19,13.45c1.54.41,3.1.16,4.37-.57h0c1.28-.75,2.29-1.98,2.7-3.51l30.02-112.03c.41-1.54.16-3.1-.57-4.37h0c-.74-1.28-1.97-2.28-3.5-2.69Z" fill="#000" stroke-width="0"/>
    <path d="M89.18,222.44c4.42,0,8.43,1.79,11.33,4.69,2.9,2.9,4.69,6.9,4.69,11.33s-1.79,8.43-4.69,11.33c-2.9,2.9-6.9,4.69-11.33,4.69s-8.43-1.79-11.33-4.69c-2.9-2.9-4.69-6.9-4.69-11.33s1.79-8.43,4.69-11.33,6.9-4.69,11.33-4.69h0ZM92.36,235.27c-.81-.81-1.94-1.32-3.18-1.32s-2.37.5-3.18,1.32c-.81.81-1.32,1.94-1.32,3.18s.5,2.37,1.32,3.18c.81.81,1.94,1.32,3.18,1.32s2.37-.5,3.18-1.32c.81-.81,1.32-1.94,1.32-3.18s-.5-2.37-1.32-3.18Z" fill="#000" stroke-width="0"/>
  </g>
  <g>
    <path d="M378.84,139.44l-47.6,20.84c-1.44.63-2.49,1.81-3.03,3.19-.54,1.39-.56,2.97.07,4.42l46.52,106.24c.63,1.44,1.8,2.49,3.19,3.03,1.39.54,2.97.56,4.42-.07l47.6-20.84c1.44-.63,2.49-1.8,3.04-3.19.54-1.39.56-2.97-.07-4.42l-46.52-106.24c-.63-1.44-1.81-2.49-3.19-3.04-1.39-.54-2.97-.56-4.42.07h0ZM326.65,149.76l47.6-20.84c4.35-1.91,9.08-1.86,13.2-.25,4.11,1.61,7.62,4.79,9.54,9.16l46.52,106.24c1.91,4.35,1.86,9.08.25,13.2-1.61,4.11-4.79,7.62-9.16,9.54l-47.6,20.84c-4.35,1.91-9.08,1.86-13.2.25-4.11-1.61-7.62-4.79-9.54-9.15l-46.52-106.24c-1.91-4.35-1.86-9.08-.25-13.2,1.61-4.11,4.79-7.62,9.15-9.54Z" fill="#000" stroke-width="0"/>
    <path d="M401.98,239.18c-1.23.19-2.27.85-2.94,1.77-.68.93-1.01,2.13-.82,3.37.19,1.23.85,2.27,1.77,2.94.93.68,2.13,1.01,3.37.82,1.23-.19,2.26-.85,2.94-1.77.68-.93,1.01-2.13.82-3.37-.19-1.23-.85-2.27-1.77-2.94-.93-.68-2.13-1.01-3.37-.82h0ZM389.77,234.15c2.44-3.31,6.13-5.69,10.5-6.36,4.36-.66,8.58.51,11.88,2.94,3.31,2.44,5.69,6.13,6.36,10.5.66,4.36-.51,8.58-2.94,11.88-2.44,3.31-6.13,5.69-10.5,6.36-4.36.66-8.58-.51-11.88-2.94-3.31-2.44-5.69-6.13-6.36-10.5-.66-4.36.51-8.58,2.94-11.88Z" fill="#000" stroke-width="0"/>
  </g>
</svg>