<?xml version="1.0" encoding="UTF-8"?>
<svg id="objects" xmlns="http://www.w3.org/2000/svg" viewBox="0 0 2200 2200">
  <g>
    <path d="M1723.53,855.39v642.27c0,44.82-22.04,86.8-59.01,112.16-83.91,57.56-262.08,146.02-564.52,146.02s-480.61-88.46-564.52-146.02c-36.97-25.36-59.01-67.34-59.01-112.16v-642.27h1247.06Z" fill="#3b3d49" stroke-width="0"/>
    <path d="M1723.53,855.39v642.27c0,44.82-22.04,86.8-59.01,112.16-83.91,57.56-262.08,146.02-564.52,146.02s-480.61-88.46-564.52-146.02c-36.97-25.36-59.01-67.34-59.01-112.16v-121.14s152.56,241.01,623.53,241.01c442.52,0,446.65-89.18,445.54-483.32l-366.39,159.16c-17.98,7.81-38.4,7.84-56.41.08l-646.27-278.45v-159.61h1247.06Z" fill="#2e303a" stroke-width="0"/>
    <path d="M2098.32,819.8l-983.78,417.32c-9.3,3.94-19.8,3.94-29.09,0L101.68,819.8c-30.27-12.84-30.27-55.74,0-68.58l983.78-417.32c9.3-3.94,19.8-3.94,29.09,0l983.78,417.32c30.27,12.84,30.27,55.74,0,68.58Z" fill="#4c505e" stroke-width="0"/>
    <path d="M2098.32,819.8l-983.77,417.32c-9.3,3.94-19.8,3.94-29.1,0L101.68,819.8c-30.27-12.84-30.27-55.74,0-68.58l998.32,373.65,922.05-406,76.27,32.35c30.27,12.84,30.27,55.74,0,68.58Z" fill="#2e303a" stroke-width="0"/>
    <path d="M1864.95,1312.76s-18.73,88.96,32.54,139.85c5.55,5.51,14.04,6.79,21,3.2l39.71-20.49c9.78-5.05,12.95-17.68,6.43-26.54-26.23-35.65-29.35-96.01-29.35-96.01h-70.32Z" fill="#f2b327" stroke-width="0"/>
    <path d="M1157.17,766.01l704.45,89.39c36.08,7.09,62.1,38.72,62.1,75.48v317.08h-52.2v-305.44c0-16.66-12.78-30.54-29.39-31.91l-691.16-87.01,6.2-57.6Z" fill="#f2b327" stroke-width="0"/>
    <ellipse cx="1100" cy="785.51" rx="160.33" ry="69.64" fill="#3f434f" stroke-width="0"/>
    <path d="M1260.33,785.51c0,38.46-71.78,69.64-160.33,69.64-59.42,0-111.28-14.04-138.98-34.9,25.53,7.46,56.27,11.81,89.36,11.81,88.55,0,160.33-31.18,160.33-69.64,0-12.65-7.76-24.51-21.33-34.72,42.8,12.49,70.95,33.72,70.95,57.81Z" fill="#2e303a" stroke-width="0"/>
    <circle cx="1900.6" cy="1277.28" r="58.47" fill="#f2b327" stroke-width="0"/>
    <path d="M1959.07,1277.28c0,32.29-26.18,58.47-58.47,58.47-6.83,0-13.39-1.17-19.49-3.33,22.71-8.03,38.98-29.69,38.98-55.14s-16.27-47.12-38.98-55.14c6.1-2.16,12.66-3.33,19.49-3.33,32.29,0,58.47,26.17,58.47,58.47Z" fill="#d39416" stroke-width="0"/>
    <path d="M1080.89,396.58l-471.32,207.49s388.1-77.09,855.96-69.11l-348.78-139.01c-11.55-4.6-24.47-4.38-35.85.64Z" fill="#70778c" stroke-width="0"/>
    <polygon points="523.62 1077.47 523.62 1385.38 654.76 1130.19 523.62 1077.47" fill="#70778c" stroke-width="0"/>
    <path d="M2105.35,734.65l-983.76-417.32c-13.72-5.83-29.45-5.83-43.17,0L94.65,734.65c-20.77,8.81-33.67,28.3-33.67,50.86,0,22.56,12.9,42.05,33.67,50.86l363.82,154.33v506.95c0,50.82,24.98,98.3,66.83,127,39.64,27.19,107.39,66.08,205.07,96.92,109.84,34.68,234.2,52.26,369.63,52.26s259.79-17.58,369.63-52.26c97.68-30.84,165.44-69.73,205.07-96.92,41.85-28.7,66.83-76.18,66.83-127v-506.96l111.98-47.5v273.89c-17.87,14.01-29.38,35.77-29.38,60.19,0,20.05,7.77,38.32,20.44,51.97-2.89,32.4-1.79,94.41,40.24,136.13,6.92,6.87,16.05,10.46,25.34,10.46,5.63,0,11.32-1.32,16.6-4.04l39.7-20.49c9.43-4.86,16.23-13.57,18.65-23.91,2.39-10.21.22-20.9-5.97-29.3-14.44-19.62-20.97-49.43-23.75-67.54,13.41-13.78,21.7-32.58,21.7-53.29,0-27.04-14.12-50.82-35.35-64.42v-281.97c0-8.18-1.07-16.15-3.05-23.79l166.68-70.71c20.77-8.81,33.67-28.3,33.67-50.86s-12.9-42.05-33.67-50.86ZM1705.53,1497.66c0,38.95-19.14,75.33-51.19,97.32-37.62,25.81-102.09,62.77-195.55,92.27-106.33,33.57-227.04,50.59-358.79,50.59s-252.46-17.02-358.79-50.59c-93.46-29.51-157.92-66.47-195.55-92.27-32.05-21.99-51.19-58.37-51.19-97.32v-491.68l583.96,247.72c6.85,2.9,14.21,4.35,21.57,4.35s14.72-1.45,21.58-4.36l583.95-247.72v491.69ZM1941.07,1277.28c0,22.32-18.16,40.47-40.47,40.47s-40.47-18.16-40.47-40.47,18.16-40.47,40.47-40.47,40.47,18.16,40.47,40.47ZM1949.94,1419.32l-39.69,20.49c-.06.03-.09.02-.08.03-25.26-25.08-30.67-61.85-30.6-89.05,6.69,1.92,13.74,2.96,21.03,2.96s14.88-1.12,21.79-3.18c4.49,21.8,12.69,48.32,27.62,68.7-.02.02-.05.04-.06.05ZM1900.6,1200.81c-3.77,0-7.47.29-11.09.81v-259.1c0-12.59-4.7-24.63-13.22-33.89-8.43-9.15-19.87-14.8-32.25-15.93l-578.61-72.97c4.79-5.94,8.28-12.22,10.41-18.75l582.89,72.19c27.26,5.63,46.98,29.8,46.98,57.7v270.12c-1.69-.11-3.4-.19-5.12-.19ZM1100,837.15c-86.89,0-142.33-30.58-142.33-51.64s55.45-51.64,142.33-51.64,142.33,30.58,142.33,51.64-55.45,51.64-142.33,51.64ZM2091.29,803.23l-168.16,71.34c-13.72-18.58-34.11-32.14-58.04-36.84-.42-.08-.83-.15-1.25-.2l-590.16-73.09c-8.02-17.56-26.2-33-53.13-44.69-32.5-14.11-75.3-21.89-120.54-21.89s-88.05,7.77-120.54,21.89c-37.27,16.19-57.79,39.54-57.79,65.75s20.52,49.57,57.79,65.75c32.5,14.11,75.3,21.89,120.54,21.89s88.05-7.77,120.54-21.89c.53-.23,1.04-.46,1.56-.7l583.99,73.64-698.56,296.34c-4.79,2.03-10.27,2.03-15.05,0L108.71,803.23c-10.89-4.62-11.73-14.73-11.73-17.72s.85-13.1,11.73-17.72l983.78-417.32c4.77-2.03,10.25-2.03,15.03,0l983.77,417.32c10.89,4.62,11.73,14.73,11.73,17.72s-.85,13.1-11.73,17.72Z" fill="#0a0a0c" stroke-width="0"/>
  </g>
  <ellipse cx="1100" cy="1935.44" rx="517.69" ry="57.62" fill="#dfe3ef" stroke-width="0"/>
</svg>