<?xml version="1.0" encoding="UTF-8"?>
<svg xmlns="http://www.w3.org/2000/svg" viewBox="0 0 792 1224">
  <defs>
    <style>
      .cls-1 {
        fill: #fff;
      }

      .cls-2 {
        fill: #12592a;
      }
    </style>
  </defs>
  <g id="Campo">
    <path class="cls-2" d="m254.04,762.45s35.74-12.26,54.13-33.7c0,0,29.62-26.21,53.45-34.38,0,0,30.26-16,72.85-20.09l59.91-6.13,52.74-4.16s5.68,14.17,18.28,16.89c0,0,5.9,1.66,12.02,3.02,0,0,3.5,5.23,3.13,22.55,0,0-49.07,2.55-73.92,18.04,0,0-51.23,27.91-58.38,37.96h-37.45s24.03-27.95,62.13-46.98c18.35-9.17,40.01-15.64,63.37-17.55l.21-1.77c-2.72-2.04-64.49,1.52-92.26,19.35,0,0-51.06,27.2-68.42,46.95h-40c-.5-.37,43.9-37.02,57.53-43.66.27-.13,9.09-6.1,20.55-11.53,12.1-5.74,27.09-10.99,35.79-12.13,0,0,16.09-4.43,25.28-5.36,0,0,5.11-5.7-14.38-2.64,0,0-42.98,5.28-57.19,12.85.22-.14-34.71,13.66-52.9,26.99,0,0-18.42,13.61-23.95,17.7l-28.07,17.79h-44.45Z"/>
    <path class="cls-2" d="m479.38,762.45s52.8-48.04,100.85-52.89c0,0,.77,13.15-16.85,33.32,0,0-13.79,19.02-41.5,19.36-11.62.14-23.99.21-42.5.21Z"/>
  </g>
  <g id="pala">
    <path class="cls-2" d="m264.91,590.7l-21.28-13.45s-6.47-6.13-13.96,6.72c0,0-36.77,64.6-38.3,86.21,0,0-10.72,37.79-1.02,68.94,0,0,6.13,20.85,24.25,23.32,0,0,26.81,0,39.43-6.55,0,0,28.4-10.98,44.06-28.85,0,0,24-28.34,37.11-44.6,0,0,12.6-17.96,14.47-26.64,0,0,3.23-8.26-3.57-12.17l-25.7-15.32s-6.13-5.45-10.55,2.04l-45.28,52.6s-5.96,6.81-3.74-2.38l37.62-71.15s4.6-12.09,11.4-14.47c0,0,19.06-4.09,30.81-29.45,0,0,34.55-76.55,36.6-81.19l3.55-8.48s6.19-13.09,10.87-12.41v-80.05h-38.08s-53.08,126.47-64.75,155.4l-23.93,51.91Z"/>
    <path class="cls-1" d="m251.51,654.53s-.77,7.66,4.09,1.79l9.06-22.47s6.69-17.43-.96-9.13l-12.18,29.81Z"/>
  </g>
  <g id="parte_derecha" data-name="parte derecha">
    <path class="cls-2" d="m390.55,383.38h39.88s6.05,15.06,11.16,28.85l106.66,254.09-79.52,5.82s-10.67-33.06-14.35-42.38c0,0-45.81-169.11-64.04-166.38l.21-80.01Z"/>
    <path class="cls-2" d="m322.87,617s-5.74-2.81,1.02-7.15c0,0,28.6-24.51,34.47-35.74l81.53-.26,15.83,54.13h-111.32l-21.53-10.98Z"/>
  </g>
</svg>