<?xml version="1.0" encoding="UTF-8"?>
<svg id="Capa_1" data-name="Capa 1" xmlns="http://www.w3.org/2000/svg" version="1.1" viewBox="0 0 592.9 858.4">
  <defs>
    <style>
      .cls-1 {
        stroke-miterlimit: 10;
        stroke-width: 1px;
      }

      .cls-1, .cls-2 {
        fill: none;
        stroke: #010202;
      }

      .cls-2 {
        stroke-miterlimit: 10;
      }
    </style>
  </defs>
  <g id="Capa_2" data-name="Capa 2">
    <path class="cls-2" d="M275.1,235.5s91.9-36.8,164.8-33c0,0,17.4,59.6-20.4,89.2,0,0-27.9,31.7-81.7,20.8,0,0-39.5-8.5-51.1-36.4,0,0-13.9-39.6-11.6-40.5Z"/>
  </g>
  <g id="Capa_3" data-name="Capa 3">
    <path class="cls-2" d="M286.6,276s-23.8,8.2-40.2-2.7c0,0-21.8,6.5-27.2-19.1,0,0-9.2-8.5,59.2-42.6,0,0,53.5-23.5,126.6-28.6,0,0,113.4-14.6,106.2,31,0,0-35.4,25.2-68.8,35.9,0,0,3.8-26-2.7-47.5,0,0-59.9-3.6-127.8,20.3l-37,12.7s6.5,28.3,11.6,40.5Z"/>
  </g>
  <g id="Capa_4" data-name="Capa 4">
    <ellipse class="cls-1" cx="331.1" cy="249.9" rx="5.8" ry="9.2" transform="translate(-54.8 97.7) rotate(-15.5)"/>
    <ellipse class="cls-1" cx="331.1" cy="251.6" rx="16" ry="22.7" transform="translate(-55.3 97.8) rotate(-15.5)"/>
    <ellipse class="cls-1" cx="395.9" cy="234.4" rx="5.8" ry="9.2" transform="translate(-48.3 114.5) rotate(-15.5)"/>
    <ellipse class="cls-1" cx="395.9" cy="236.2" rx="16" ry="22.7" transform="translate(-48.8 114.6) rotate(-15.5)"/>
    <path class="cls-2" d="M352.3,290.6s22.1,13.3,42.2-8.5"/>
  </g>
  <g id="Capa_5" data-name="Capa 5">
    <path class="cls-2" d="M296.2,290.3s-16-5.4-8.5,12.3c0,0,17.4,19.4,17.4,22.1,0,0,1,8.5,23.8,11.6,0,0,42.5,11.2,104.2-17.7l13.6-36.4s24.2-12-7.8-17.7"/>
  </g>
  <g id="Capa_6" data-name="Capa 6">
    <path class="cls-2" d="M326.5,335.9l3,17s25.5,30,77.6-6.8v-17.2s-51.3,16.9-80.6,7Z"/>
    <path class="cls-2" d="M354.4,364.4l-7.8,81.1,31.7,44.9,17.7-33.4s-20.8-3.7-9.5-32.3l-10.3-62.9s-10.6,5.3-21.7,2.6Z"/>
    <path class="cls-2" d="M166.5,268.2"/>
  </g>
  <g id="Capa_7" data-name="Capa 7">
    <path class="cls-2" d="M446.2,283.4l3.2,23.6,67.9,229.8s-38.3,68.9-65.4,81.2l-56,56.2s-82.9-42.9-105.9-77.1c0,0-2.4-30.1-15.2-30.6,0,0-5.7-1.8-5.7-5.4,0,0-12.8-7.4-14.8-5.6l36.8-185.1,5.1-57.9"/>
  </g>
  <g id="Capa_8" data-name="Capa 8">
    <path class="cls-2" d="M295.4,320.8s-19.7-18.2-41.1,25.8"/>
    <path class="cls-2" d="M263,331.9s-31.1,5.7-48.5,24.1l-27.1,13.8s-16.3,36.8-11.2,42.4l48,76.1,2.1,1.2,8.6,4.9"/>
    <path class="cls-2" d="M225.6,489.9l-5.5,4.5,9.7,16.3s2.2.5,5.6,1.5c6.1,1.8,15.8,5.1,22.7,9.9"/>
    <path class="cls-2" d="M234.8,513.4s-7.5,4.5,8.8,26.3c0,0,7.3-.3,12.6,2.3"/>
    <path class="cls-2" d="M265.2,492.8s4.1-6.1-13.4-5.5"/>
    <path class="cls-2" d="M257.4,485.4l-2.2-24.7s-15.7-27.4-17.7-41.5l-6.5-15.3"/>
    <path class="cls-2" d="M213.8,398.7s6.8,14.1,41.2-6c0,0,14.3-15.3,34-18.2"/>
  </g>
  <g id="Capa_9" data-name="Capa 9">
    <path class="cls-2" d="M448.6,301.4l15,5.9s17.7-4.2,27.6,21.6"/>
    <path class="cls-2" d="M484.9,317.1s90,25,98.6,42c0,0,10.8,19.4,8.6,31.3l-50.8,97s-11.2,10.5-20.1,10.5"/>
    <path class="cls-2" d="M542,487.7s.4,13.6-1.9,17.5c0,0-3.2,10.5-27.9,12.2"/>
    <path class="cls-2" d="M532.3,513.4l11.3,8s-4.3,17.5-24.8,15.3"/>
    <path class="cls-2" d="M549.3,398h-10.6s-22.2,60.9-21.4,78.5c0,0-11.4-3.4-17.9-5.1"/>
    <line class="cls-2" x1="466.4" y1="361.9" x2="535.5" y2="397.2"/>
    <path class="cls-2" d="M254.9,555.1l21.1,85.3,7.1-17.9,10.4,67.2,9.2-18.7,4.8,72.5,11.1-31.7s11.6,21.5,12.6,33.5l11.4,40.8,2.4-17,3.6,12.8"/>
  </g>
  <g id="Capa_10" data-name="Capa 10">
    <polyline class="cls-2" points="517.3 536.8 504.7 627 497.5 604.7 489.7 718 480.5 659.1 469.1 762 459.1 705.1 448.5 783.6 442 720.9 426.2 802.3 423.3 770 414 819.1 397.1 788.8"/>
    <line class="cls-2" x1="356.4" y1="651.4" x2="343.7" y2="857.3"/>
    <polyline class="cls-2" points="399.4 670.7 395.7 843.1 393.2 858.3"/>
    <path class="cls-2" d="M296.2,531.3s59.2-8.6,65.7-3.6c0,0,9.5,40.4-8.9,40.4,0,0-7.8-.4-10,2.9,0,0-7.7,3.7-7.7,6.6l-.5,8s-17.4,3.8-28.7-17.9c0,0-8.9-21.6-10-36.5Z"/>
    <line class="cls-2" x1="299.2" y1="544.9" x2="362.7" y2="539.1"/>
  </g>
  <g id="Capa_11" data-name="Capa 11">
    <path class="cls-2" d="M245.4,227.6s13.5-27.3,4.3-79.7c0,0,11-23.2,52.6-40.8,0,0,48.5-16.6,73.3-10.2,0,0-1.5,9.8,26.5,8.8,0,0,5.7,6.3,19.3,3.5,0,0,1.9,26.4,36.5,71.7"/>
    <path class="cls-2" d="M248.3,147.8S142.4,64.9.2,119.6c0,0,127.3-60.4,254.1,21.4"/>
    <path class="cls-2" d="M225.3,135s-29.2,29-91.4,18.8l-31.9-25.3,18.5,25.3s-65.7-1.4-119.2-34.7c0,0,27.2-24.8,89.8-36.3,0,0,68.9-14.2,134.2,40.2"/>
  </g>
  <g id="Capa_12" data-name="Capa 12">
    <path class="cls-2" d="M400.6,104s4.9-37.5-26.3-71.2c0,0,22.7,29.1,13.3,71.2"/>
    <path class="cls-2" d="M387.6,88.9s-14.6-25-20.2-20.5c0,0,16.1,25.4,11,33.3"/>
    <path class="cls-2" d="M392.2,56s6.1-17.6,0-41.1c0,0,14.3,2.8,18.4,53.5"/>
    <path class="cls-2" d="M401.4,95.4S439.7,2.1,454,.6l-19.9,41"/>
    <path class="cls-2" d="M441.7,30s14.8-3.3,17.4,0c0,0-29.4,8.2-46.5,74"/>
    <path class="cls-2" d="M430.5,62.6l8.9-4.1s-27,40.3-19.1,50.8"/>
    <path class="cls-2" d="M371,106.5l27.8,13.5-3.1,20.4-27.1,3.1s-3.8-24.8,2.3-37Z"/>
    <path class="cls-2" d="M393.7,118.6s-5.9,12-24,12.8"/>
    <line class="cls-2" x1="383.2" y1="116.5" x2="387.6" y2="134.4"/>
    <line class="cls-2" x1="376.1" y1="120.3" x2="379.9" y2="134.4"/>
  </g>
</svg>