<?xml version="1.0" encoding="UTF-8"?>
<svg id="Capa_1" data-name="Capa 1" xmlns="http://www.w3.org/2000/svg" viewBox="0 0 592.92 858.38">
  <g id="Capa_2" data-name="Capa 2">
    <path d="M275.06,235.48s91.91-36.77,164.77-33.02c0,0,17.36,59.57-20.43,89.19,0,0-27.91,31.66-81.7,20.77,0,0-39.49-8.51-51.06-36.43,0,0-13.95-39.59-11.58-40.51Z" fill="none" stroke="#010202" stroke-miterlimit="10"/>
  </g>
  <g id="Capa_3" data-name="Capa 3">
    <path d="M286.64,275.99s-23.83,8.17-40.17-2.72c0,0-21.79,6.47-27.23-19.06,0,0-9.19-8.51,59.23-42.55,0,0,53.45-23.49,126.64-28.6,0,0,113.36-14.64,106.21,30.98,0,0-35.42,25.17-68.77,35.9,0,0,3.77-26-2.72-47.48,0,0-59.89-3.57-127.82,20.34l-36.95,12.68s6.47,28.26,11.58,40.51Z" fill="none" stroke="#010202" stroke-miterlimit="10"/>
  </g>
  <g id="Capa_4" data-name="Capa 4">
    <ellipse cx="331.08" cy="249.89" rx="5.79" ry="9.19" transform="translate(-54.8 97.71) rotate(-15.52)" fill="none" stroke="#010202" stroke-miterlimit="10" stroke-width="1"/>
    <ellipse cx="331.12" cy="251.61" rx="16.05" ry="22.71" transform="translate(-55.26 97.79) rotate(-15.52)" fill="none" stroke="#010202" stroke-miterlimit="10" stroke-width="1"/>
    <ellipse cx="395.9" cy="234.44" rx="5.79" ry="9.19" transform="translate(-48.3 114.5) rotate(-15.52)" fill="none" stroke="#010202" stroke-miterlimit="10" stroke-width="1"/>
    <ellipse cx="395.95" cy="236.17" rx="16.05" ry="22.71" transform="translate(-48.76 114.57) rotate(-15.52)" fill="none" stroke="#010202" stroke-miterlimit="10" stroke-width="1"/>
    <path d="M352.34,290.63s22.13,13.28,42.21-8.51" fill="none" stroke="#010202" stroke-miterlimit="10"/>
  </g>
  <g id="Capa_5" data-name="Capa 5">
    <path d="M296.17,290.26s-16-5.42-8.51,12.28c0,0,17.36,19.4,17.36,22.13,0,0,1.02,8.51,23.83,11.57,0,0,42.55,11.23,104.17-17.7l13.62-36.43s24.22-11.95-7.8-17.72" fill="none" stroke="#010202" stroke-miterlimit="10"/>
  </g>
  <g id="Capa_6" data-name="Capa 6">
    <path d="M326.52,335.9l3.01,17.02s25.53,29.96,77.62-6.81v-17.24s-51.29,16.9-80.63,7.03Z" fill="none" stroke="#010202" stroke-miterlimit="10"/>
    <path d="M354.38,364.43l-7.83,81.09,31.66,44.94,17.7-33.36s-20.77-3.74-9.53-32.34l-10.28-62.89s-10.58,5.33-21.72,2.56Z" fill="none" stroke="#010202" stroke-miterlimit="10"/>
  </g>
  <g id="Capa_7" data-name="Capa 7">
    <path d="M446.17,283.37l3.19,23.6,67.91,229.79s-38.3,68.94-65.36,81.19l-55.96,56.17s-82.94-42.89-105.92-77.11c0,0-2.42-30.13-15.25-30.64,0,0-5.69-1.79-5.69-5.36,0,0-12.77-7.4-14.81-5.62l36.77-185.11,5.11-57.91" fill="none" stroke="#010202" stroke-miterlimit="10"/>
  </g>
  <g id="Capa_8" data-name="Capa 8">
    <path d="M295.42,320.83s-19.68-18.24-41.13,25.82" fill="none" stroke="#010202" stroke-miterlimit="10"/>
    <path d="M262.95,331.87s-31.12,5.74-48.48,24.12l-27.06,13.79s-16.34,36.77-11.23,42.38l48,76.09,2.09,1.19,8.63,4.93" fill="none" stroke="#010202" stroke-miterlimit="10"/>
    <path d="M225.57,489.91l-5.49,4.47,9.7,16.34s2.24.51,5.61,1.5c6.05,1.78,15.76,5.11,22.73,9.87" fill="none" stroke="#010202" stroke-miterlimit="10"/>
    <path d="M234.76,513.4s-7.53,4.47,8.81,26.3c0,0,7.28-.26,12.64,2.3" fill="none" stroke="#010202" stroke-miterlimit="10"/>
    <path d="M265.19,492.84s4.09-6.13-13.45-5.45" fill="none" stroke="#010202" stroke-miterlimit="10"/>
    <path d="M257.36,485.35l-2.21-24.68s-15.66-27.4-17.7-41.53l-6.47-15.32" fill="none" stroke="#010202" stroke-miterlimit="10"/>
    <path d="M213.79,398.71s6.81,14.13,41.19-5.96c0,0,14.3-15.32,34.04-18.21" fill="none" stroke="#010202" stroke-miterlimit="10"/>
  </g>
  <g id="Capa_9" data-name="Capa 9">
    <path d="M448.61,301.39l15.05,5.92s17.7-4.21,27.57,21.56" fill="none" stroke="#010202" stroke-miterlimit="10"/>
    <path d="M484.85,317.08s90,24.95,98.64,41.97c0,0,10.81,19.4,8.64,31.32l-50.85,97.02s-11.23,10.55-20.09,10.55" fill="none" stroke="#010202" stroke-miterlimit="10"/>
    <path d="M542.04,487.65s.43,13.62-1.87,17.45c0,0-3.15,10.55-27.91,12.17" fill="none" stroke="#010202" stroke-miterlimit="10"/>
    <path d="M532.34,513.35l11.32,8s-4.34,17.53-24.77,15.32" fill="none" stroke="#010202" stroke-miterlimit="10"/>
    <path d="M549.27,398.03h-10.64s-22.21,60.94-21.36,78.47c0,0-11.4-3.4-17.87-5.11" fill="none" stroke="#010202" stroke-miterlimit="10"/>
    <line x1="466.38" y1="361.87" x2="535.49" y2="397.18" fill="none" stroke="#010202" stroke-miterlimit="10"/>
    <path d="M254.94,555.14l21.15,85.28,7.15-17.87,10.38,67.23,9.19-18.72,4.77,72.51,11.06-31.66s11.57,21.45,12.6,33.53l11.4,40.85,2.38-17.02,3.57,12.77" fill="none" stroke="#010202" stroke-miterlimit="10"/>
  </g>
  <g id="Capa_10" data-name="Capa 10">
    <polyline points="517.27 536.76 504.68 626.97 497.53 604.67 489.7 718.03 480.51 659.14 469.1 761.95 459.06 705.1 448.51 783.57 442.04 720.93 426.21 802.29 423.32 769.95 413.96 819.14 397.1 788.84" fill="none" stroke="#010202" stroke-miterlimit="10"/>
    <line x1="356.41" y1="651.41" x2="343.66" y2="857.27" fill="none" stroke="#010202" stroke-miterlimit="10"/>
    <polyline points="399.35 670.71 395.74 843.14 393.19 858.29" fill="none" stroke="#010202" stroke-miterlimit="10"/>
    <path d="M296.17,531.31s59.23-8.6,65.7-3.62c0,0,9.53,40.38-8.85,40.38,0,0-7.83-.43-10,2.89,0,0-7.66,3.7-7.66,6.64l-.51,8.04s-17.36,3.83-28.72-17.87c0,0-8.94-21.61-9.96-36.46Z" fill="none" stroke="#010202" stroke-miterlimit="10"/>
    <line x1="299.23" y1="544.93" x2="362.68" y2="539.06" fill="none" stroke="#010202" stroke-miterlimit="10"/>
  </g>
  <g id="Capa_11" data-name="Capa 11">
    <path d="M245.36,227.57s13.53-27.32,4.34-79.66c0,0,10.98-23.23,52.6-40.85,0,0,48.51-16.6,73.28-10.21,0,0-1.45,9.83,26.47,8.77,0,0,5.74,6.34,19.28,3.53,0,0,1.87,26.38,36.55,71.68" fill="none" stroke="#010202" stroke-miterlimit="10"/>
    <path d="M248.34,147.82S142.38,64.93.21,119.56c0,0,127.3-60.42,254.09,21.4" fill="none" stroke="#010202" stroke-miterlimit="10"/>
    <path d="M225.32,135.01s-29.23,28.98-91.4,18.77l-31.91-25.28,18.51,25.28s-65.69-1.39-119.15-34.65c0,0,27.23-24.84,89.78-36.33,0,0,68.94-14.16,134.17,40.15" fill="none" stroke="#010202" stroke-miterlimit="10"/>
  </g>
  <g id="Capa_12" data-name="Capa 12">
    <path d="M400.59,103.99s4.85-37.53-26.3-71.23c0,0,22.74,29.11,13.29,71.23" fill="none" stroke="#010202" stroke-miterlimit="10"/>
    <path d="M387.58,88.93s-14.56-25.02-20.18-20.55c0,0,16.14,25.37,11.01,33.3" fill="none" stroke="#010202" stroke-miterlimit="10"/>
    <path d="M392.17,55.99s6.13-17.62,0-41.11c0,0,14.3,2.81,18.38,53.49" fill="none" stroke="#010202" stroke-miterlimit="10"/>
    <path d="M401.36,95.38S439.66,2.11,453.96.59l-19.91,41.04" fill="none" stroke="#010202" stroke-miterlimit="10"/>
    <path d="M441.7,29.95s14.81-3.32,17.36,0c0,0-29.36,8.17-46.47,74.04" fill="none" stroke="#010202" stroke-miterlimit="10"/>
    <path d="M430.47,62.63l8.94-4.09s-26.97,40.3-19.1,50.79" fill="none" stroke="#010202" stroke-miterlimit="10"/>
    <path d="M370.98,106.54l27.83,13.53-3.06,20.43-27.06,3.06s-3.84-24.76,2.29-37.02Z" fill="none" stroke="#010202" stroke-miterlimit="10"/>
    <path d="M393.7,118.55s-5.87,12-24,12.76" fill="none" stroke="#010202" stroke-miterlimit="10"/>
    <line x1="383.15" y1="116.5" x2="387.58" y2="134.37" fill="none" stroke="#010202" stroke-miterlimit="10"/>
    <line x1="376.08" y1="120.33" x2="379.91" y2="134.37" fill="none" stroke="#010202" stroke-miterlimit="10"/>
  </g>
</svg>